<mxfile host="app.diagrams.net" modified="2023-03-25T07:02:51.764Z" agent="Mozilla/5.0 (Macintosh; Intel Mac OS X 10.15; rv:109.0) Gecko/20100101 Firefox/111.0" etag="ikfkhr3ZrPzFMc-rHb9d" version="21.1.1" type="github">
  <diagram name="Page-1" id="e7e014a7-5840-1c2e-5031-d8a46d1fe8dd">
    <mxGraphModel dx="1194" dy="695" grid="1" gridSize="10" guides="1" tooltips="1" connect="1" arrows="1" fold="1" page="1" pageScale="1" pageWidth="1169" pageHeight="826" background="none" math="0" shadow="0">
      <root>
        <mxCell id="0" />
        <mxCell id="1" parent="0" />
        <mxCell id="2" value="User" style="swimlane;whiteSpace=wrap" parent="1" vertex="1">
          <mxGeometry x="164.5" y="128" width="280" height="652" as="geometry" />
        </mxCell>
        <mxCell id="5" value="" style="ellipse;shape=startState;fillColor=#000000;strokeColor=#ff0000;" parent="2" vertex="1">
          <mxGeometry x="100" y="40" width="30" height="30" as="geometry" />
        </mxCell>
        <mxCell id="6" value="" style="edgeStyle=elbowEdgeStyle;elbow=horizontal;verticalAlign=bottom;endArrow=open;endSize=8;strokeColor=#FF0000;endFill=1;rounded=0;exitX=0.504;exitY=0.85;exitDx=0;exitDy=0;exitPerimeter=0;entryX=0.5;entryY=0;entryDx=0;entryDy=0;" parent="2" source="5" target="YBfF382zae-pwntPXhF8-41" edge="1">
          <mxGeometry x="100" y="40" as="geometry">
            <mxPoint x="115.5" y="110" as="targetPoint" />
            <Array as="points" />
          </mxGeometry>
        </mxCell>
        <mxCell id="12" value="" style="edgeStyle=elbowEdgeStyle;elbow=horizontal;strokeColor=#FF0000;endArrow=open;endFill=1;rounded=0" parent="2" source="10" edge="1">
          <mxGeometry width="100" height="100" relative="1" as="geometry">
            <mxPoint x="160" y="290" as="sourcePoint" />
            <mxPoint x="60" y="135" as="targetPoint" />
            <Array as="points">
              <mxPoint x="30" y="250" />
            </Array>
          </mxGeometry>
        </mxCell>
        <mxCell id="YBfF382zae-pwntPXhF8-41" value="User klik icon poster" style="rounded=1;whiteSpace=wrap;html=1;arcSize=40;fontColor=#000000;fillColor=#ffffc0;strokeColor=#ff0000;" vertex="1" parent="2">
          <mxGeometry x="55" y="112" width="120" height="40" as="geometry" />
        </mxCell>
        <mxCell id="YBfF382zae-pwntPXhF8-45" value="User klik gambar poster" style="rounded=1;whiteSpace=wrap;html=1;arcSize=40;fontColor=#000000;fillColor=#ffffc0;strokeColor=#ff0000;" vertex="1" parent="2">
          <mxGeometry x="55" y="192" width="120" height="40" as="geometry" />
        </mxCell>
        <mxCell id="YBfF382zae-pwntPXhF8-49" value="User klik action simpan / share" style="rounded=1;whiteSpace=wrap;html=1;arcSize=40;fontColor=#000000;fillColor=#ffffc0;strokeColor=#ff0000;" vertex="1" parent="2">
          <mxGeometry x="55" y="272" width="120" height="40" as="geometry" />
        </mxCell>
        <mxCell id="3" value="System" style="swimlane;whiteSpace=wrap" parent="1" vertex="1">
          <mxGeometry x="444.5" y="128" width="280" height="652" as="geometry" />
        </mxCell>
        <mxCell id="YBfF382zae-pwntPXhF8-43" value="Tampilkan halaman poster" style="rounded=1;whiteSpace=wrap;html=1;arcSize=40;fontColor=#000000;fillColor=#ffffc0;strokeColor=#ff0000;" vertex="1" parent="3">
          <mxGeometry x="80.5" y="112" width="120" height="40" as="geometry" />
        </mxCell>
        <mxCell id="YBfF382zae-pwntPXhF8-47" value="Tampil halaman detail poster" style="rounded=1;whiteSpace=wrap;html=1;arcSize=40;fontColor=#000000;fillColor=#ffffc0;strokeColor=#ff0000;" vertex="1" parent="3">
          <mxGeometry x="80.5" y="192" width="120" height="40" as="geometry" />
        </mxCell>
        <mxCell id="YBfF382zae-pwntPXhF8-48" value="" style="edgeStyle=orthogonalEdgeStyle;html=1;verticalAlign=bottom;endArrow=open;endSize=8;strokeColor=#ff0000;rounded=0;entryX=0.5;entryY=0;entryDx=0;entryDy=0;" edge="1" source="YBfF382zae-pwntPXhF8-47" parent="3" target="YBfF382zae-pwntPXhF8-51">
          <mxGeometry relative="1" as="geometry">
            <mxPoint x="140.5" y="292" as="targetPoint" />
          </mxGeometry>
        </mxCell>
        <mxCell id="YBfF382zae-pwntPXhF8-51" value="" style="ellipse;html=1;shape=endState;fillColor=#000000;strokeColor=#ff0000;" vertex="1" parent="3">
          <mxGeometry x="250" y="602" width="30" height="30" as="geometry" />
        </mxCell>
        <mxCell id="YBfF382zae-pwntPXhF8-52" value="Lakukan penyimpanan internal atau bagikan" style="rounded=1;whiteSpace=wrap;html=1;arcSize=40;fontColor=#000000;fillColor=#ffffc0;strokeColor=#ff0000;" vertex="1" parent="3">
          <mxGeometry x="80.5" y="272" width="120" height="40" as="geometry" />
        </mxCell>
        <mxCell id="YBfF382zae-pwntPXhF8-53" value="" style="edgeStyle=orthogonalEdgeStyle;html=1;verticalAlign=bottom;endArrow=open;endSize=8;strokeColor=#ff0000;rounded=0;entryX=0.5;entryY=0;entryDx=0;entryDy=0;" edge="1" source="YBfF382zae-pwntPXhF8-52" parent="3" target="YBfF382zae-pwntPXhF8-54">
          <mxGeometry relative="1" as="geometry">
            <mxPoint x="140.5" y="372" as="targetPoint" />
          </mxGeometry>
        </mxCell>
        <mxCell id="YBfF382zae-pwntPXhF8-54" value="Berhasil" style="rhombus;whiteSpace=wrap;html=1;fontColor=#000000;fillColor=#ffffc0;strokeColor=#ff0000;" vertex="1" parent="3">
          <mxGeometry x="20.5" y="382" width="80" height="40" as="geometry" />
        </mxCell>
        <mxCell id="YBfF382zae-pwntPXhF8-55" value="no" style="edgeStyle=orthogonalEdgeStyle;html=1;align=left;verticalAlign=bottom;endArrow=open;endSize=8;strokeColor=#ff0000;rounded=0;entryX=0.5;entryY=0;entryDx=0;entryDy=0;" edge="1" source="YBfF382zae-pwntPXhF8-54" parent="3" target="YBfF382zae-pwntPXhF8-60">
          <mxGeometry x="-1" relative="1" as="geometry">
            <mxPoint x="200.5" y="402" as="targetPoint" />
          </mxGeometry>
        </mxCell>
        <mxCell id="YBfF382zae-pwntPXhF8-56" value="yes" style="edgeStyle=orthogonalEdgeStyle;html=1;align=left;verticalAlign=top;endArrow=open;endSize=8;strokeColor=#ff0000;rounded=0;entryX=0.461;entryY=0.007;entryDx=0;entryDy=0;entryPerimeter=0;" edge="1" source="YBfF382zae-pwntPXhF8-54" parent="3" target="YBfF382zae-pwntPXhF8-57">
          <mxGeometry x="-1" relative="1" as="geometry">
            <mxPoint x="60.5" y="482" as="targetPoint" />
          </mxGeometry>
        </mxCell>
        <mxCell id="YBfF382zae-pwntPXhF8-57" value="Snacbar sukses" style="rounded=1;whiteSpace=wrap;html=1;arcSize=40;fontColor=#000000;fillColor=#ffffc0;strokeColor=#ff0000;" vertex="1" parent="3">
          <mxGeometry x="5.5" y="482" width="120" height="40" as="geometry" />
        </mxCell>
        <mxCell id="YBfF382zae-pwntPXhF8-58" value="" style="edgeStyle=orthogonalEdgeStyle;html=1;verticalAlign=bottom;endArrow=open;endSize=8;strokeColor=#ff0000;rounded=0;entryX=0;entryY=0.5;entryDx=0;entryDy=0;" edge="1" source="YBfF382zae-pwntPXhF8-57" parent="3" target="YBfF382zae-pwntPXhF8-51">
          <mxGeometry relative="1" as="geometry">
            <mxPoint x="65.5" y="582" as="targetPoint" />
            <Array as="points">
              <mxPoint x="66" y="617" />
            </Array>
          </mxGeometry>
        </mxCell>
        <mxCell id="YBfF382zae-pwntPXhF8-60" value="Snackbar error" style="rounded=1;whiteSpace=wrap;html=1;arcSize=40;fontColor=#000000;fillColor=#ffffc0;strokeColor=#ff0000;" vertex="1" parent="3">
          <mxGeometry x="135.5" y="482" width="120" height="40" as="geometry" />
        </mxCell>
        <mxCell id="YBfF382zae-pwntPXhF8-61" value="" style="edgeStyle=orthogonalEdgeStyle;html=1;verticalAlign=bottom;endArrow=open;endSize=8;strokeColor=#ff0000;rounded=0;entryX=0;entryY=0.5;entryDx=0;entryDy=0;" edge="1" source="YBfF382zae-pwntPXhF8-60" parent="3" target="YBfF382zae-pwntPXhF8-51">
          <mxGeometry relative="1" as="geometry">
            <mxPoint x="195.5" y="582" as="targetPoint" />
          </mxGeometry>
        </mxCell>
        <mxCell id="YBfF382zae-pwntPXhF8-42" value="" style="edgeStyle=orthogonalEdgeStyle;html=1;verticalAlign=bottom;endArrow=open;endSize=8;strokeColor=#ff0000;rounded=0;entryX=0;entryY=0.5;entryDx=0;entryDy=0;" edge="1" source="YBfF382zae-pwntPXhF8-41" parent="1" target="YBfF382zae-pwntPXhF8-43">
          <mxGeometry relative="1" as="geometry">
            <mxPoint x="279.5" y="380" as="targetPoint" />
          </mxGeometry>
        </mxCell>
        <mxCell id="YBfF382zae-pwntPXhF8-44" value="" style="edgeStyle=orthogonalEdgeStyle;html=1;verticalAlign=bottom;endArrow=open;endSize=8;strokeColor=#ff0000;rounded=0;entryX=0.5;entryY=0;entryDx=0;entryDy=0;" edge="1" source="YBfF382zae-pwntPXhF8-43" parent="1" target="YBfF382zae-pwntPXhF8-45">
          <mxGeometry relative="1" as="geometry">
            <mxPoint x="585" y="340" as="targetPoint" />
            <Array as="points">
              <mxPoint x="585" y="290" />
              <mxPoint x="279" y="290" />
            </Array>
          </mxGeometry>
        </mxCell>
        <mxCell id="YBfF382zae-pwntPXhF8-46" value="" style="edgeStyle=orthogonalEdgeStyle;html=1;verticalAlign=bottom;endArrow=open;endSize=8;strokeColor=#ff0000;rounded=0;entryX=0;entryY=0.5;entryDx=0;entryDy=0;" edge="1" source="YBfF382zae-pwntPXhF8-45" parent="1" target="YBfF382zae-pwntPXhF8-47">
          <mxGeometry relative="1" as="geometry">
            <mxPoint x="279.5" y="420" as="targetPoint" />
          </mxGeometry>
        </mxCell>
        <mxCell id="YBfF382zae-pwntPXhF8-50" value="" style="edgeStyle=orthogonalEdgeStyle;html=1;verticalAlign=bottom;endArrow=open;endSize=8;strokeColor=#ff0000;rounded=0;entryX=0;entryY=0.5;entryDx=0;entryDy=0;" edge="1" source="YBfF382zae-pwntPXhF8-49" parent="1" target="YBfF382zae-pwntPXhF8-52">
          <mxGeometry relative="1" as="geometry">
            <mxPoint x="279.5" y="500" as="targetPoint" />
          </mxGeometry>
        </mxCell>
      </root>
    </mxGraphModel>
  </diagram>
</mxfile>
